<svg xmlns="http://www.w3.org/2000/svg" width="390" height="844"><path d="M211,404L247,433L265,414Z" fill="rgb(52,31,62)" stroke="rgb(52,31,62)" stroke-width="1.51"/><path d="M265,414L256,327L211,404Z" fill="rgb(54,32,64)" stroke="rgb(54,32,64)" stroke-width="1.51"/><path d="M265,414L296,436L292,378Z" fill="rgb(46,29,56)" stroke="rgb(46,29,56)" stroke-width="1.51"/><path d="M247,433L296,436L265,414Z" fill="rgb(47,29,57)" stroke="rgb(47,29,57)" stroke-width="1.51"/><path d="M211,404L188,449L247,433Z" fill="rgb(54,33,66)" stroke="rgb(54,33,66)" stroke-width="1.51"/><path d="M247,433L284,493L296,436Z" fill="rgb(45,28,54)" stroke="rgb(45,28,54)" stroke-width="1.51"/><path d="M256,327L185,365L211,404Z" fill="rgb(58,35,70)" stroke="rgb(58,35,70)" stroke-width="1.51"/><path d="M211,404L136,428L188,449Z" fill="rgb(59,35,72)" stroke="rgb(59,35,72)" stroke-width="1.51"/><path d="M292,378L256,327L265,414Z" fill="rgb(51,31,61)" stroke="rgb(51,31,61)" stroke-width="1.51"/><path d="M188,449L236,490L247,433Z" fill="rgb(51,32,62)" stroke="rgb(51,32,62)" stroke-width="1.51"/><path d="M292,378L306,356L256,327Z" fill="rgb(50,30,60)" stroke="rgb(50,30,60)" stroke-width="1.51"/><path d="M341,378L306,356L292,378Z" fill="rgb(45,28,54)" stroke="rgb(45,28,54)" stroke-width="1.51"/><path d="M236,490L284,493L247,433Z" fill="rgb(47,28,55)" stroke="rgb(47,28,55)" stroke-width="1.51"/><path d="M185,365L139,376L211,404Z" fill="rgb(63,37,76)" stroke="rgb(63,37,76)" stroke-width="1.51"/><path d="M161,335L139,376L185,365Z" fill="rgb(66,39,80)" stroke="rgb(66,39,80)" stroke-width="1.51"/><path d="M139,376L136,428L211,404Z" fill="rgb(63,38,77)" stroke="rgb(63,38,77)" stroke-width="1.51"/><path d="M188,449L174,507L236,490Z" fill="rgb(53,33,64)" stroke="rgb(53,33,64)" stroke-width="1.51"/><path d="M196,300L161,335L185,365Z" fill="rgb(65,39,79)" stroke="rgb(65,39,79)" stroke-width="1.51"/><path d="M296,436L341,378L292,378Z" fill="rgb(44,27,52)" stroke="rgb(44,27,52)" stroke-width="1.51"/><path d="M354,452L341,378L296,436Z" fill="rgb(40,26,47)" stroke="rgb(40,26,47)" stroke-width="1.51"/><path d="M341,378L332,354L306,356Z" fill="rgb(44,27,52)" stroke="rgb(44,27,52)" stroke-width="1.51"/><path d="M290,303L245,298L256,327Z" fill="rgb(56,33,67)" stroke="rgb(56,33,67)" stroke-width="1.51"/><path d="M256,327L196,300L185,365Z" fill="rgb(61,36,74)" stroke="rgb(61,36,74)" stroke-width="1.51"/><path d="M290,303L256,327L306,356Z" fill="rgb(52,32,62)" stroke="rgb(52,32,62)" stroke-width="1.51"/><path d="M245,298L196,300L256,327Z" fill="rgb(60,36,72)" stroke="rgb(60,36,72)" stroke-width="1.51"/><path d="M332,354L290,303L306,356Z" fill="rgb(48,29,57)" stroke="rgb(48,29,57)" stroke-width="1.51"/><path d="M149,491L174,507L188,449Z" fill="rgb(57,34,69)" stroke="rgb(57,34,69)" stroke-width="1.51"/><path d="M255,551L294,536L284,493Z" fill="rgb(40,25,47)" stroke="rgb(40,25,47)" stroke-width="1.51"/><path d="M136,428L149,491L188,449Z" fill="rgb(61,36,73)" stroke="rgb(61,36,73)" stroke-width="1.51"/><path d="M284,493L338,479L296,436Z" fill="rgb(40,26,47)" stroke="rgb(40,26,47)" stroke-width="1.51"/><path d="M338,479L354,452L296,436Z" fill="rgb(38,24,44)" stroke="rgb(38,24,44)" stroke-width="1.51"/><path d="M161,335L111,352L139,376Z" fill="rgb(70,41,85)" stroke="rgb(70,41,85)" stroke-width="1.51"/><path d="M139,376L91,378L136,428Z" fill="rgb(69,40,85)" stroke="rgb(69,40,85)" stroke-width="1.51"/><path d="M136,428L104,467L149,491Z" fill="rgb(64,38,78)" stroke="rgb(64,38,78)" stroke-width="1.51"/><path d="M90,308L111,352L161,335Z" fill="rgb(74,42,90)" stroke="rgb(74,42,90)" stroke-width="1.51"/><path d="M255,551L284,493L236,490Z" fill="rgb(44,27,52)" stroke="rgb(44,27,52)" stroke-width="1.51"/><path d="M284,493L294,536L338,479Z" fill="rgb(38,25,45)" stroke="rgb(38,25,45)" stroke-width="1.51"/><path d="M354,452L380,434L341,378Z" fill="rgb(36,24,43)" stroke="rgb(36,24,43)" stroke-width="1.51"/><path d="M407,313L338,286L332,354Z" fill="rgb(42,27,50)" stroke="rgb(42,27,50)" stroke-width="1.51"/><path d="M400,493L380,434L354,452Z" fill="rgb(32,21,37)" stroke="rgb(32,21,37)" stroke-width="1.51"/><path d="M402,414L380,434L438,427Z" fill="rgb(32,21,37)" stroke="rgb(32,21,37)" stroke-width="1.51"/><path d="M195,561L255,551L236,490Z" fill="rgb(46,29,55)" stroke="rgb(46,29,55)" stroke-width="1.51"/><path d="M149,491L159,539L174,507Z" fill="rgb(57,34,68)" stroke="rgb(57,34,68)" stroke-width="1.51"/><path d="M91,378L104,467L136,428Z" fill="rgb(69,40,84)" stroke="rgb(69,40,84)" stroke-width="1.51"/><path d="M111,352L91,378L139,376Z" fill="rgb(73,42,88)" stroke="rgb(73,42,88)" stroke-width="1.51"/><path d="M174,507L195,561L236,490Z" fill="rgb(51,31,60)" stroke="rgb(51,31,60)" stroke-width="1.51"/><path d="M84,490L159,539L149,491Z" fill="rgb(61,36,74)" stroke="rgb(61,36,74)" stroke-width="1.51"/><path d="M332,354L338,286L290,303Z" fill="rgb(48,29,57)" stroke="rgb(48,29,57)" stroke-width="1.51"/><path d="M290,303L284,256L245,298Z" fill="rgb(56,33,67)" stroke="rgb(56,33,67)" stroke-width="1.51"/><path d="M245,298L174,251L196,300Z" fill="rgb(65,38,79)" stroke="rgb(65,38,79)" stroke-width="1.51"/><path d="M409,368L332,354L341,378Z" fill="rgb(39,25,46)" stroke="rgb(39,25,46)" stroke-width="1.51"/><path d="M338,286L284,256L290,303Z" fill="rgb(52,32,62)" stroke="rgb(52,32,62)" stroke-width="1.51"/><path d="M159,539L195,561L174,507Z" fill="rgb(53,32,64)" stroke="rgb(53,32,64)" stroke-width="1.51"/><path d="M196,300L147,275L161,335Z" fill="rgb(69,40,84)" stroke="rgb(69,40,84)" stroke-width="1.51"/><path d="M111,352L61,310L91,378Z" fill="rgb(77,44,95)" stroke="rgb(77,44,95)" stroke-width="1.51"/><path d="M174,251L147,275L196,300Z" fill="rgb(70,41,86)" stroke="rgb(70,41,86)" stroke-width="1.51"/><path d="M380,434L402,414L341,378Z" fill="rgb(35,23,41)" stroke="rgb(35,23,41)" stroke-width="1.51"/><path d="M400,493L354,452L338,479Z" fill="rgb(32,21,37)" stroke="rgb(32,21,37)" stroke-width="1.51"/><path d="M263,228L174,251L245,298Z" fill="rgb(64,37,78)" stroke="rgb(64,37,78)" stroke-width="1.51"/><path d="M294,536L334,548L338,479Z" fill="rgb(35,23,41)" stroke="rgb(35,23,41)" stroke-width="1.51"/><path d="M283,593L334,548L294,536Z" fill="rgb(35,23,41)" stroke="rgb(35,23,41)" stroke-width="1.51"/><path d="M283,593L294,536L255,551Z" fill="rgb(38,24,45)" stroke="rgb(38,24,45)" stroke-width="1.51"/><path d="M402,414L409,368L341,378Z" fill="rgb(35,23,41)" stroke="rgb(35,23,41)" stroke-width="1.51"/><path d="M104,467L84,490L149,491Z" fill="rgb(65,38,79)" stroke="rgb(65,38,79)" stroke-width="1.51"/><path d="M49,463L84,490L104,467Z" fill="rgb(71,41,86)" stroke="rgb(71,41,86)" stroke-width="1.51"/><path d="M86,261L90,308L147,275Z" fill="rgb(79,45,97)" stroke="rgb(79,45,97)" stroke-width="1.51"/><path d="M147,275L90,308L161,335Z" fill="rgb(74,42,90)" stroke="rgb(74,42,90)" stroke-width="1.51"/><path d="M91,378L49,463L104,467Z" fill="rgb(73,42,89)" stroke="rgb(73,42,89)" stroke-width="1.51"/><path d="M284,256L263,228L245,298Z" fill="rgb(59,35,70)" stroke="rgb(59,35,70)" stroke-width="1.51"/><path d="M312,215L263,228L284,256Z" fill="rgb(57,34,69)" stroke="rgb(57,34,69)" stroke-width="1.51"/><path d="M174,251L150,248L147,275Z" fill="rgb(73,42,90)" stroke="rgb(73,42,90)" stroke-width="1.51"/><path d="M165,215L150,248L174,251Z" fill="rgb(74,42,90)" stroke="rgb(74,42,90)" stroke-width="1.51"/><path d="M334,548L400,493L338,479Z" fill="rgb(31,21,36)" stroke="rgb(31,21,36)" stroke-width="1.51"/><path d="M456,382L427,354L409,368Z" fill="rgb(36,23,41)" stroke="rgb(36,23,41)" stroke-width="1.51"/><path d="M261,605L283,593L255,551Z" fill="rgb(39,25,45)" stroke="rgb(39,25,45)" stroke-width="1.51"/><path d="M399,564L438,504L400,493Z" fill="rgb(27,18,30)" stroke="rgb(27,18,30)" stroke-width="1.51"/><path d="M338,286L312,215L284,256Z" fill="rgb(53,32,63)" stroke="rgb(53,32,63)" stroke-width="1.51"/><path d="M379,262L364,261L338,286Z" fill="rgb(45,28,54)" stroke="rgb(45,28,54)" stroke-width="1.51"/><path d="M409,368L407,313L332,354Z" fill="rgb(38,24,44)" stroke="rgb(38,24,44)" stroke-width="1.51"/><path d="M409,368L427,354L407,313Z" fill="rgb(37,24,43)" stroke="rgb(37,24,43)" stroke-width="1.51"/><path d="M456,382L409,368L402,414Z" fill="rgb(34,23,40)" stroke="rgb(34,23,40)" stroke-width="1.51"/><path d="M29,352L43,382L91,378Z" fill="rgb(81,46,99)" stroke="rgb(81,46,99)" stroke-width="1.51"/><path d="M43,382L49,463L91,378Z" fill="rgb(78,44,95)" stroke="rgb(78,44,95)" stroke-width="1.51"/><path d="M199,604L255,551L195,561Z" fill="rgb(45,28,54)" stroke="rgb(45,28,54)" stroke-width="1.51"/><path d="M199,604L261,605L255,551Z" fill="rgb(42,26,49)" stroke="rgb(42,26,49)" stroke-width="1.51"/><path d="M400,493L438,427L380,434Z" fill="rgb(30,21,35)" stroke="rgb(30,21,35)" stroke-width="1.51"/><path d="M148,604L199,604L195,561Z" fill="rgb(49,30,59)" stroke="rgb(49,30,59)" stroke-width="1.51"/><path d="M148,604L195,561L159,539Z" fill="rgb(52,31,63)" stroke="rgb(52,31,63)" stroke-width="1.51"/><path d="M84,559L159,539L84,490Z" fill="rgb(63,37,76)" stroke="rgb(63,37,76)" stroke-width="1.51"/><path d="M263,228L225,206L174,251Z" fill="rgb(67,39,81)" stroke="rgb(67,39,81)" stroke-width="1.51"/><path d="M291,144L225,206L263,228Z" fill="rgb(64,37,77)" stroke="rgb(64,37,77)" stroke-width="1.51"/><path d="M364,261L312,215L338,286Z" fill="rgb(49,30,59)" stroke="rgb(49,30,59)" stroke-width="1.51"/><path d="M407,313L379,262L338,286Z" fill="rgb(42,27,50)" stroke="rgb(42,27,50)" stroke-width="1.51"/><path d="M90,308L61,310L111,352Z" fill="rgb(79,45,97)" stroke="rgb(79,45,97)" stroke-width="1.51"/><path d="M86,261L61,310L90,308Z" fill="rgb(82,47,101)" stroke="rgb(82,47,101)" stroke-width="1.51"/><path d="M150,248L86,261L147,275Z" fill="rgb(78,44,95)" stroke="rgb(78,44,95)" stroke-width="1.51"/><path d="M225,206L165,215L174,251Z" fill="rgb(71,41,87)" stroke="rgb(71,41,87)" stroke-width="1.51"/><path d="M358,206L312,215L364,261Z" fill="rgb(50,30,59)" stroke="rgb(50,30,59)" stroke-width="1.51"/><path d="M82,193L86,261L150,248Z" fill="rgb(82,47,101)" stroke="rgb(82,47,101)" stroke-width="1.51"/><path d="M49,463L45,500L84,490Z" fill="rgb(72,42,89)" stroke="rgb(72,42,89)" stroke-width="1.51"/><path d="M14,505L45,500L49,463Z" fill="rgb(75,43,92)" stroke="rgb(75,43,92)" stroke-width="1.51"/><path d="M43,382L-2,437L49,463Z" fill="rgb(80,46,99)" stroke="rgb(80,46,99)" stroke-width="1.51"/><path d="M61,310L29,352L91,378Z" fill="rgb(81,46,100)" stroke="rgb(81,46,100)" stroke-width="1.51"/><path d="M7,289L29,352L61,310Z" fill="rgb(87,49,108)" stroke="rgb(87,49,108)" stroke-width="1.51"/><path d="M61,550L84,559L84,490Z" fill="rgb(67,39,82)" stroke="rgb(67,39,82)" stroke-width="1.51"/><path d="M116,595L148,604L159,539Z" fill="rgb(56,33,66)" stroke="rgb(56,33,66)" stroke-width="1.51"/><path d="M199,604L229,663L261,605Z" fill="rgb(41,26,48)" stroke="rgb(41,26,48)" stroke-width="1.51"/><path d="M438,427L456,382L402,414Z" fill="rgb(33,22,38)" stroke="rgb(33,22,38)" stroke-width="1.51"/><path d="M427,354L442,316L407,313Z" fill="rgb(38,25,44)" stroke="rgb(38,25,44)" stroke-width="1.51"/><path d="M407,313L461,249L379,262Z" fill="rgb(41,26,48)" stroke="rgb(41,26,48)" stroke-width="1.51"/><path d="M400,493L438,504L438,427Z" fill="rgb(29,20,33)" stroke="rgb(29,20,33)" stroke-width="1.51"/><path d="M438,427L459,545L456,382Z" fill="rgb(30,21,35)" stroke="rgb(30,21,35)" stroke-width="1.51"/><path d="M399,564L400,493L334,548Z" fill="rgb(27,19,31)" stroke="rgb(27,19,31)" stroke-width="1.51"/><path d="M456,382L442,316L427,354Z" fill="rgb(36,24,42)" stroke="rgb(36,24,42)" stroke-width="1.51"/><path d="M283,593L344,604L334,548Z" fill="rgb(32,21,37)" stroke="rgb(32,21,37)" stroke-width="1.51"/><path d="M364,640L344,604L316,666Z" fill="rgb(26,18,30)" stroke="rgb(26,18,30)" stroke-width="1.51"/><path d="M84,559L116,595L159,539Z" fill="rgb(59,35,72)" stroke="rgb(59,35,72)" stroke-width="1.51"/><path d="M384,579L399,564L334,548Z" fill="rgb(26,18,30)" stroke="rgb(26,18,30)" stroke-width="1.51"/><path d="M344,604L384,579L334,548Z" fill="rgb(28,19,32)" stroke="rgb(28,19,32)" stroke-width="1.51"/><path d="M84,559L46,616L116,595Z" fill="rgb(63,37,76)" stroke="rgb(63,37,76)" stroke-width="1.51"/><path d="M45,500L61,550L84,490Z" fill="rgb(70,41,86)" stroke="rgb(70,41,86)" stroke-width="1.51"/><path d="M160,636L199,604L148,604Z" fill="rgb(49,30,59)" stroke="rgb(49,30,59)" stroke-width="1.51"/><path d="M160,636L191,635L199,604Z" fill="rgb(47,29,56)" stroke="rgb(47,29,56)" stroke-width="1.51"/><path d="M316,666L344,604L283,593Z" fill="rgb(30,20,35)" stroke="rgb(30,20,35)" stroke-width="1.51"/><path d="M379,262L358,206L364,261Z" fill="rgb(46,28,54)" stroke="rgb(46,28,54)" stroke-width="1.51"/><path d="M188,149L188,178L225,206Z" fill="rgb(73,42,89)" stroke="rgb(73,42,89)" stroke-width="1.51"/><path d="M390,177L358,206L379,262Z" fill="rgb(47,29,55)" stroke="rgb(47,29,55)" stroke-width="1.51"/><path d="M29,352L5,388L43,382Z" fill="rgb(85,48,104)" stroke="rgb(85,48,104)" stroke-width="1.51"/><path d="M45,500L9,545L61,550Z" fill="rgb(72,42,89)" stroke="rgb(72,42,89)" stroke-width="1.51"/><path d="M-15,339L5,388L29,352Z" fill="rgb(89,50,109)" stroke="rgb(89,50,109)" stroke-width="1.51"/><path d="M225,206L188,178L165,215Z" fill="rgb(72,42,89)" stroke="rgb(72,42,89)" stroke-width="1.51"/><path d="M82,193L55,257L86,261Z" fill="rgb(87,48,106)" stroke="rgb(87,48,106)" stroke-width="1.51"/><path d="M188,149L225,206L260,129Z" fill="rgb(71,41,86)" stroke="rgb(71,41,86)" stroke-width="1.51"/><path d="M86,261L55,257L61,310Z" fill="rgb(85,48,105)" stroke="rgb(85,48,105)" stroke-width="1.51"/><path d="M82,193L150,248L165,215Z" fill="rgb(79,45,97)" stroke="rgb(79,45,97)" stroke-width="1.51"/><path d="M116,595L160,636L148,604Z" fill="rgb(54,32,64)" stroke="rgb(54,32,64)" stroke-width="1.51"/><path d="M76,662L160,636L116,595Z" fill="rgb(55,33,66)" stroke="rgb(55,33,66)" stroke-width="1.51"/><path d="M5,388L-2,437L43,382Z" fill="rgb(84,48,104)" stroke="rgb(84,48,104)" stroke-width="1.51"/><path d="M-2,437L14,505L49,463Z" fill="rgb(79,45,97)" stroke="rgb(79,45,97)" stroke-width="1.51"/><path d="M191,635L229,663L199,604Z" fill="rgb(43,27,51)" stroke="rgb(43,27,51)" stroke-width="1.51"/><path d="M181,710L229,663L191,635Z" fill="rgb(42,26,49)" stroke="rgb(42,26,49)" stroke-width="1.51"/><path d="M55,257L7,289L61,310Z" fill="rgb(88,49,109)" stroke="rgb(88,49,109)" stroke-width="1.51"/><path d="M5,388L-39,412L-2,437Z" fill="rgb(86,48,105)" stroke="rgb(86,48,105)" stroke-width="1.51"/><path d="M438,504L459,545L438,427Z" fill="rgb(28,19,32)" stroke="rgb(28,19,32)" stroke-width="1.51"/><path d="M399,564L459,545L438,504Z" fill="rgb(26,17,29)" stroke="rgb(26,17,29)" stroke-width="1.51"/><path d="M444,604L459,545L399,564Z" fill="rgb(24,16,27)" stroke="rgb(24,16,27)" stroke-width="1.51"/><path d="M444,604L399,564L384,579Z" fill="rgb(23,16,26)" stroke="rgb(23,16,26)" stroke-width="1.51"/><path d="M7,289L-15,339L29,352Z" fill="rgb(91,51,111)" stroke="rgb(91,51,111)" stroke-width="1.51"/><path d="M125,167L82,193L165,215Z" fill="rgb(83,46,101)" stroke="rgb(83,46,101)" stroke-width="1.51"/><path d="M55,257L5,253L7,289Z" fill="rgb(92,52,114)" stroke="rgb(92,52,114)" stroke-width="1.51"/><path d="M291,144L263,228L312,215Z" fill="rgb(59,35,72)" stroke="rgb(59,35,72)" stroke-width="1.51"/><path d="M344,604L394,627L384,579Z" fill="rgb(24,16,27)" stroke="rgb(24,16,27)" stroke-width="1.51"/><path d="M316,666L283,593L261,605Z" fill="rgb(34,22,39)" stroke="rgb(34,22,39)" stroke-width="1.51"/><path d="M125,167L165,215L188,178Z" fill="rgb(78,44,95)" stroke="rgb(78,44,95)" stroke-width="1.51"/><path d="M188,149L125,167L188,178Z" fill="rgb(78,44,96)" stroke="rgb(78,44,96)" stroke-width="1.51"/><path d="M14,505L9,545L45,500Z" fill="rgb(76,44,93)" stroke="rgb(76,44,93)" stroke-width="1.51"/><path d="M61,550L46,616L84,559Z" fill="rgb(66,39,80)" stroke="rgb(66,39,80)" stroke-width="1.51"/><path d="M-43,525L9,545L14,505Z" fill="rgb(78,45,96)" stroke="rgb(78,45,96)" stroke-width="1.51"/><path d="M-63,454L14,505L-2,437Z" fill="rgb(82,47,101)" stroke="rgb(82,47,101)" stroke-width="1.51"/><path d="M346,155L291,144L312,215Z" fill="rgb(57,34,69)" stroke="rgb(57,34,69)" stroke-width="1.51"/><path d="M364,640L394,627L344,604Z" fill="rgb(24,16,27)" stroke="rgb(24,16,27)" stroke-width="1.51"/><path d="M286,677L316,666L261,605Z" fill="rgb(31,21,37)" stroke="rgb(31,21,37)" stroke-width="1.51"/><path d="M393,716L441,644L394,627Z" fill="rgb(18,12,20)" stroke="rgb(18,12,20)" stroke-width="1.51"/><path d="M358,206L346,155L312,215Z" fill="rgb(53,32,63)" stroke="rgb(53,32,63)" stroke-width="1.51"/><path d="M442,316L461,249L407,313Z" fill="rgb(40,25,47)" stroke="rgb(40,25,47)" stroke-width="1.51"/><path d="M456,382L461,249L442,316Z" fill="rgb(38,25,45)" stroke="rgb(38,25,45)" stroke-width="1.51"/><path d="M459,545L461,249L456,382Z" fill="rgb(34,22,40)" stroke="rgb(34,22,40)" stroke-width="1.51"/><path d="M390,177L346,155L358,206Z" fill="rgb(50,31,60)" stroke="rgb(50,31,60)" stroke-width="1.51"/><path d="M229,663L286,677L261,605Z" fill="rgb(35,24,41)" stroke="rgb(35,24,41)" stroke-width="1.51"/><path d="M453,203L390,177L379,262Z" fill="rgb(45,28,53)" stroke="rgb(45,28,53)" stroke-width="1.51"/><path d="M-39,350L-39,412L5,388Z" fill="rgb(88,49,108)" stroke="rgb(88,49,108)" stroke-width="1.51"/><path d="M277,103L260,129L291,144Z" fill="rgb(65,39,80)" stroke="rgb(65,39,80)" stroke-width="1.51"/><path d="M291,144L260,129L225,206Z" fill="rgb(66,38,80)" stroke="rgb(66,38,80)" stroke-width="1.51"/><path d="M-37,282L-39,350L-15,339Z" fill="rgb(92,51,113)" stroke="rgb(92,51,113)" stroke-width="1.51"/><path d="M-15,339L-39,350L5,388Z" fill="rgb(89,50,110)" stroke="rgb(89,50,110)" stroke-width="1.51"/><path d="M50,194L5,253L55,257Z" fill="rgb(92,52,114)" stroke="rgb(92,52,114)" stroke-width="1.51"/><path d="M-37,282L-15,339L7,289Z" fill="rgb(93,52,115)" stroke="rgb(93,52,115)" stroke-width="1.51"/><path d="M229,663L242,690L286,677Z" fill="rgb(35,23,40)" stroke="rgb(35,23,40)" stroke-width="1.51"/><path d="M181,710L242,690L229,663Z" fill="rgb(39,25,46)" stroke="rgb(39,25,46)" stroke-width="1.51"/><path d="M181,710L191,635L160,636Z" fill="rgb(46,28,54)" stroke="rgb(46,28,54)" stroke-width="1.51"/><path d="M9,610L46,616L61,550Z" fill="rgb(68,40,83)" stroke="rgb(68,40,83)" stroke-width="1.51"/><path d="M28,145L50,194L82,193Z" fill="rgb(94,52,116)" stroke="rgb(94,52,116)" stroke-width="1.51"/><path d="M82,193L50,194L55,257Z" fill="rgb(90,50,111)" stroke="rgb(90,50,111)" stroke-width="1.51"/><path d="M441,644L444,604L394,627Z" fill="rgb(21,13,23)" stroke="rgb(21,13,23)" stroke-width="1.51"/><path d="M394,627L444,604L384,579Z" fill="rgb(22,14,25)" stroke="rgb(22,14,25)" stroke-width="1.51"/><path d="M46,616L59,636L116,595Z" fill="rgb(62,37,75)" stroke="rgb(62,37,75)" stroke-width="1.51"/><path d="M125,167L116,140L82,193Z" fill="rgb(86,49,106)" stroke="rgb(86,49,106)" stroke-width="1.51"/><path d="M188,149L116,140L125,167Z" fill="rgb(82,47,101)" stroke="rgb(82,47,101)" stroke-width="1.51"/><path d="M148,88L116,140L188,149Z" fill="rgb(83,47,102)" stroke="rgb(83,47,102)" stroke-width="1.51"/><path d="M461,249L453,203L379,262Z" fill="rgb(43,27,51)" stroke="rgb(43,27,51)" stroke-width="1.51"/><path d="M357,82L291,144L346,155Z" fill="rgb(58,35,69)" stroke="rgb(58,35,69)" stroke-width="1.51"/><path d="M-68,237L-37,282L5,253Z" fill="rgb(96,53,119)" stroke="rgb(96,53,119)" stroke-width="1.51"/><path d="M5,253L-37,282L7,289Z" fill="rgb(95,53,118)" stroke="rgb(95,53,118)" stroke-width="1.51"/><path d="M59,636L76,662L116,595Z" fill="rgb(60,36,73)" stroke="rgb(60,36,73)" stroke-width="1.51"/><path d="M-39,412L-63,454L-2,437Z" fill="rgb(84,48,104)" stroke="rgb(84,48,104)" stroke-width="1.51"/><path d="M9,545L9,610L61,550Z" fill="rgb(72,41,88)" stroke="rgb(72,41,88)" stroke-width="1.51"/><path d="M46,616L37,680L59,636Z" fill="rgb(64,38,78)" stroke="rgb(64,38,78)" stroke-width="1.51"/><path d="M59,636L37,680L76,662Z" fill="rgb(62,37,75)" stroke="rgb(62,37,75)" stroke-width="1.51"/><path d="M-39,350L-63,454L-39,412Z" fill="rgb(86,49,106)" stroke="rgb(86,49,106)" stroke-width="1.51"/><path d="M-68,237L-63,454L-39,350Z" fill="rgb(90,50,111)" stroke="rgb(90,50,111)" stroke-width="1.51"/><path d="M-63,454L-43,525L14,505Z" fill="rgb(80,46,98)" stroke="rgb(80,46,98)" stroke-width="1.51"/><path d="M260,129L176,93L188,149Z" fill="rgb(75,43,92)" stroke="rgb(75,43,92)" stroke-width="1.51"/><path d="M357,82L277,103L291,144Z" fill="rgb(62,37,75)" stroke="rgb(62,37,75)" stroke-width="1.51"/><path d="M405,128L346,155L390,177Z" fill="rgb(50,31,59)" stroke="rgb(50,31,59)" stroke-width="1.51"/><path d="M-53,601L9,610L9,545Z" fill="rgb(74,43,91)" stroke="rgb(74,43,91)" stroke-width="1.51"/><path d="M348,709L316,666L326,726Z" fill="rgb(24,16,27)" stroke="rgb(24,16,27)" stroke-width="1.51"/><path d="M155,709L181,710L160,636Z" fill="rgb(45,29,54)" stroke="rgb(45,29,54)" stroke-width="1.51"/><path d="M444,604L461,680L459,545Z" fill="rgb(22,14,24)" stroke="rgb(22,14,24)" stroke-width="1.51"/><path d="M393,716L394,627L364,640Z" fill="rgb(19,12,21)" stroke="rgb(19,12,21)" stroke-width="1.51"/><path d="M348,709L364,640L316,666Z" fill="rgb(24,16,27)" stroke="rgb(24,16,27)" stroke-width="1.51"/><path d="M316,666L286,677L326,726Z" fill="rgb(27,19,30)" stroke="rgb(27,19,30)" stroke-width="1.51"/><path d="M113,697L155,709L160,636Z" fill="rgb(49,30,58)" stroke="rgb(49,30,58)" stroke-width="1.51"/><path d="M76,662L113,697L160,636Z" fill="rgb(54,32,64)" stroke="rgb(54,32,64)" stroke-width="1.51"/><path d="M81,729L113,697L76,662Z" fill="rgb(55,33,66)" stroke="rgb(55,33,66)" stroke-width="1.51"/><path d="M277,103L261,90L260,129Z" fill="rgb(68,40,83)" stroke="rgb(68,40,83)" stroke-width="1.51"/><path d="M282,45L261,90L277,103Z" fill="rgb(69,40,84)" stroke="rgb(69,40,84)" stroke-width="1.51"/><path d="M261,90L176,93L260,129Z" fill="rgb(73,42,89)" stroke="rgb(73,42,89)" stroke-width="1.51"/><path d="M28,145L82,193L116,140Z" fill="rgb(92,51,113)" stroke="rgb(92,51,113)" stroke-width="1.51"/><path d="M9,146L-8,201L50,194Z" fill="rgb(99,55,122)" stroke="rgb(99,55,122)" stroke-width="1.51"/><path d="M50,194L-8,201L5,253Z" fill="rgb(96,54,120)" stroke="rgb(96,54,120)" stroke-width="1.51"/><path d="M310,746L286,677L242,690Z" fill="rgb(30,20,34)" stroke="rgb(30,20,34)" stroke-width="1.51"/><path d="M455,134L405,128L390,177Z" fill="rgb(49,30,58)" stroke="rgb(49,30,58)" stroke-width="1.51"/><path d="M181,710L209,733L242,690Z" fill="rgb(38,24,44)" stroke="rgb(38,24,44)" stroke-width="1.51"/><path d="M154,756L209,733L181,710Z" fill="rgb(41,26,47)" stroke="rgb(41,26,47)" stroke-width="1.51"/><path d="M154,756L181,710L155,709Z" fill="rgb(44,27,51)" stroke="rgb(44,27,51)" stroke-width="1.51"/><path d="M209,733L228,735L242,690Z" fill="rgb(36,23,41)" stroke="rgb(36,23,41)" stroke-width="1.51"/><path d="M-63,454L-76,502L-43,525Z" fill="rgb(80,46,98)" stroke="rgb(80,46,98)" stroke-width="1.51"/><path d="M-43,525L-53,601L9,545Z" fill="rgb(76,44,93)" stroke="rgb(76,44,93)" stroke-width="1.51"/><path d="M-68,237L-76,502L-63,454Z" fill="rgb(87,49,107)" stroke="rgb(87,49,107)" stroke-width="1.51"/><path d="M348,709L393,716L364,640Z" fill="rgb(19,13,22)" stroke="rgb(19,13,22)" stroke-width="1.51"/><path d="M310,746L326,726L286,677Z" fill="rgb(26,17,29)" stroke="rgb(26,17,29)" stroke-width="1.51"/><path d="M176,93L148,88L188,149Z" fill="rgb(81,46,100)" stroke="rgb(81,46,100)" stroke-width="1.51"/><path d="M128,53L148,88L176,93Z" fill="rgb(86,49,106)" stroke="rgb(86,49,106)" stroke-width="1.51"/><path d="M59,99L28,145L116,140Z" fill="rgb(95,53,117)" stroke="rgb(95,53,117)" stroke-width="1.51"/><path d="M455,134L398,109L405,128Z" fill="rgb(50,31,60)" stroke="rgb(50,31,60)" stroke-width="1.51"/><path d="M405,128L398,109L346,155Z" fill="rgb(51,31,61)" stroke="rgb(51,31,61)" stroke-width="1.51"/><path d="M113,697L154,756L155,709Z" fill="rgb(47,29,55)" stroke="rgb(47,29,55)" stroke-width="1.51"/><path d="M9,610L37,680L46,616Z" fill="rgb(67,39,81)" stroke="rgb(67,39,81)" stroke-width="1.51"/><path d="M-22,659L37,680L9,610Z" fill="rgb(69,40,84)" stroke="rgb(69,40,84)" stroke-width="1.51"/><path d="M148,88L111,90L116,140Z" fill="rgb(88,49,109)" stroke="rgb(88,49,109)" stroke-width="1.51"/><path d="M379,761L393,716L348,709Z" fill="rgb(16,10,18)" stroke="rgb(16,10,18)" stroke-width="1.51"/><path d="M398,109L357,82L346,155Z" fill="rgb(54,32,64)" stroke="rgb(54,32,64)" stroke-width="1.51"/><path d="M261,90L210,60L176,93Z" fill="rgb(77,44,94)" stroke="rgb(77,44,94)" stroke-width="1.51"/><path d="M326,726L379,761L348,709Z" fill="rgb(19,13,21)" stroke="rgb(19,13,21)" stroke-width="1.51"/><path d="M228,735L310,746L242,690Z" fill="rgb(31,21,36)" stroke="rgb(31,21,36)" stroke-width="1.51"/><path d="M259,792L310,746L228,735Z" fill="rgb(28,19,33)" stroke="rgb(28,19,33)" stroke-width="1.51"/><path d="M59,99L9,146L28,145Z" fill="rgb(100,55,124)" stroke="rgb(100,55,124)" stroke-width="1.51"/><path d="M28,145L9,146L50,194Z" fill="rgb(98,54,122)" stroke="rgb(98,54,122)" stroke-width="1.51"/><path d="M-49,203L-68,237L5,253Z" fill="rgb(98,54,121)" stroke="rgb(98,54,121)" stroke-width="1.51"/><path d="M248,36L210,60L261,90Z" fill="rgb(75,43,92)" stroke="rgb(75,43,92)" stroke-width="1.51"/><path d="M148,88L128,53L111,90Z" fill="rgb(89,50,110)" stroke="rgb(89,50,110)" stroke-width="1.51"/><path d="M396,55L363,51L357,82Z" fill="rgb(56,34,68)" stroke="rgb(56,34,68)" stroke-width="1.51"/><path d="M453,203L455,134L390,177Z" fill="rgb(47,29,56)" stroke="rgb(47,29,56)" stroke-width="1.51"/><path d="M461,249L455,134L453,203Z" fill="rgb(46,28,54)" stroke="rgb(46,28,54)" stroke-width="1.51"/><path d="M-76,502L-53,601L-43,525Z" fill="rgb(77,44,95)" stroke="rgb(77,44,95)" stroke-width="1.51"/><path d="M-49,203L5,253L-8,201Z" fill="rgb(99,55,122)" stroke="rgb(99,55,122)" stroke-width="1.51"/><path d="M-37,282L-68,237L-39,350Z" fill="rgb(94,52,116)" stroke="rgb(94,52,116)" stroke-width="1.51"/><path d="M-35,147L-49,203L-8,201Z" fill="rgb(101,56,125)" stroke="rgb(101,56,125)" stroke-width="1.51"/><path d="M393,716L461,680L441,644Z" fill="rgb(17,10,19)" stroke="rgb(17,10,19)" stroke-width="1.51"/><path d="M441,644L461,680L444,604Z" fill="rgb(20,13,22)" stroke="rgb(20,13,22)" stroke-width="1.51"/><path d="M459,545L461,680L461,249Z" fill="rgb(28,19,32)" stroke="rgb(28,19,32)" stroke-width="1.51"/><path d="M111,90L59,99L116,140Z" fill="rgb(92,51,114)" stroke="rgb(92,51,114)" stroke-width="1.51"/><path d="M79,31L59,99L111,90Z" fill="rgb(96,53,119)" stroke="rgb(96,53,119)" stroke-width="1.51"/><path d="M37,680L81,729L76,662Z" fill="rgb(59,35,71)" stroke="rgb(59,35,71)" stroke-width="1.51"/><path d="M190,797L259,792L228,735Z" fill="rgb(33,21,38)" stroke="rgb(33,21,38)" stroke-width="1.51"/><path d="M14,706L81,729L37,680Z" fill="rgb(60,36,73)" stroke="rgb(60,36,73)" stroke-width="1.51"/><path d="M81,729L154,756L113,697Z" fill="rgb(50,31,59)" stroke="rgb(50,31,59)" stroke-width="1.51"/><path d="M-53,601L-22,659L9,610Z" fill="rgb(72,42,88)" stroke="rgb(72,42,88)" stroke-width="1.51"/><path d="M357,82L282,45L277,103Z" fill="rgb(64,38,78)" stroke="rgb(64,38,78)" stroke-width="1.51"/><path d="M158,7L128,53L210,60Z" fill="rgb(87,49,107)" stroke="rgb(87,49,107)" stroke-width="1.51"/><path d="M210,60L128,53L176,93Z" fill="rgb(84,47,103)" stroke="rgb(84,47,103)" stroke-width="1.51"/><path d="M282,45L248,36L261,90Z" fill="rgb(72,41,88)" stroke="rgb(72,41,88)" stroke-width="1.51"/><path d="M114,815L163,781L154,756Z" fill="rgb(42,27,50)" stroke="rgb(42,27,50)" stroke-width="1.51"/><path d="M-22,659L14,706L37,680Z" fill="rgb(67,39,81)" stroke="rgb(67,39,81)" stroke-width="1.51"/><path d="M282,45L305,10L248,36Z" fill="rgb(72,41,87)" stroke="rgb(72,41,87)" stroke-width="1.51"/><path d="M357,82L363,51L282,45Z" fill="rgb(62,37,75)" stroke="rgb(62,37,75)" stroke-width="1.51"/><path d="M396,55L357,82L398,109Z" fill="rgb(54,33,64)" stroke="rgb(54,33,64)" stroke-width="1.51"/><path d="M9,146L-35,147L-8,201Z" fill="rgb(102,56,127)" stroke="rgb(102,56,127)" stroke-width="1.51"/><path d="M-49,203L-42,117L-68,237Z" fill="rgb(101,56,125)" stroke="rgb(101,56,125)" stroke-width="1.51"/><path d="M-42,117L-35,147L9,146Z" fill="rgb(104,57,130)" stroke="rgb(104,57,130)" stroke-width="1.51"/><path d="M-42,117L9,146L-21,81Z" fill="rgb(106,58,132)" stroke="rgb(106,58,132)" stroke-width="1.51"/><path d="M310,746L379,761L326,726Z" fill="rgb(20,13,23)" stroke="rgb(20,13,23)" stroke-width="1.51"/><path d="M393,716L446,732L461,680Z" fill="rgb(15,9,17)" stroke="rgb(15,9,17)" stroke-width="1.51"/><path d="M330,807L379,761L310,746Z" fill="rgb(18,11,20)" stroke="rgb(18,11,20)" stroke-width="1.51"/><path d="M154,756L163,781L209,733Z" fill="rgb(40,25,47)" stroke="rgb(40,25,47)" stroke-width="1.51"/><path d="M114,815L154,756L81,729Z" fill="rgb(47,29,56)" stroke="rgb(47,29,56)" stroke-width="1.51"/><path d="M363,51L305,10L282,45Z" fill="rgb(65,39,80)" stroke="rgb(65,39,80)" stroke-width="1.51"/><path d="M465,83L396,55L398,109Z" fill="rgb(53,32,63)" stroke="rgb(53,32,63)" stroke-width="1.51"/><path d="M190,797L228,735L209,733Z" fill="rgb(36,23,42)" stroke="rgb(36,23,42)" stroke-width="1.51"/><path d="M379,761L446,732L393,716Z" fill="rgb(12,7,14)" stroke="rgb(12,7,14)" stroke-width="1.51"/><path d="M-44,707L5,741L14,706Z" fill="rgb(66,39,80)" stroke="rgb(66,39,80)" stroke-width="1.51"/><path d="M-53,601L-62,649L-22,659Z" fill="rgb(71,41,87)" stroke="rgb(71,41,87)" stroke-width="1.51"/><path d="M-76,502L-62,649L-53,601Z" fill="rgb(74,43,91)" stroke="rgb(74,43,91)" stroke-width="1.51"/><path d="M163,781L190,797L209,733Z" fill="rgb(37,24,44)" stroke="rgb(37,24,44)" stroke-width="1.51"/><path d="M128,827L190,797L163,781Z" fill="rgb(39,25,46)" stroke="rgb(39,25,46)" stroke-width="1.51"/><path d="M455,134L465,83L398,109Z" fill="rgb(51,31,61)" stroke="rgb(51,31,61)" stroke-width="1.51"/><path d="M461,249L465,83L455,134Z" fill="rgb(48,30,57)" stroke="rgb(48,30,57)" stroke-width="1.51"/><path d="M461,680L465,83L461,249Z" fill="rgb(37,24,43)" stroke="rgb(37,24,43)" stroke-width="1.51"/><path d="M326,-13L305,10L363,51Z" fill="rgb(65,38,78)" stroke="rgb(65,38,78)" stroke-width="1.51"/><path d="M248,36L230,1L210,60Z" fill="rgb(78,45,96)" stroke="rgb(78,45,96)" stroke-width="1.51"/><path d="M326,-13L363,51L413,-4Z" fill="rgb(60,36,73)" stroke="rgb(60,36,73)" stroke-width="1.51"/><path d="M-35,147L-42,117L-49,203Z" fill="rgb(103,57,128)" stroke="rgb(103,57,128)" stroke-width="1.51"/><path d="M-21,81L9,146L59,99Z" fill="rgb(104,57,129)" stroke="rgb(104,57,129)" stroke-width="1.51"/><path d="M305,10L230,1L248,36Z" fill="rgb(75,43,91)" stroke="rgb(75,43,91)" stroke-width="1.51"/><path d="M128,53L79,31L111,90Z" fill="rgb(94,52,117)" stroke="rgb(94,52,117)" stroke-width="1.51"/><path d="M14,706L42,766L81,729Z" fill="rgb(58,35,70)" stroke="rgb(58,35,70)" stroke-width="1.51"/><path d="M-44,707L14,706L-22,659Z" fill="rgb(68,39,82)" stroke="rgb(68,39,82)" stroke-width="1.51"/><path d="M189,-16L158,7L210,60Z" fill="rgb(85,48,105)" stroke="rgb(85,48,105)" stroke-width="1.51"/><path d="M108,-10L79,31L128,53Z" fill="rgb(97,53,120)" stroke="rgb(97,53,120)" stroke-width="1.51"/><path d="M5,741L42,766L14,706Z" fill="rgb(62,37,75)" stroke="rgb(62,37,75)" stroke-width="1.51"/><path d="M379,761L442,779L446,732Z" fill="rgb(10,6,11)" stroke="rgb(10,6,11)" stroke-width="1.51"/><path d="M278,817L330,807L310,746Z" fill="rgb(22,15,24)" stroke="rgb(22,15,24)" stroke-width="1.51"/><path d="M278,817L310,746L259,792Z" fill="rgb(25,17,28)" stroke="rgb(25,17,28)" stroke-width="1.51"/><path d="M235,835L259,792L190,797Z" fill="rgb(30,20,34)" stroke="rgb(30,20,34)" stroke-width="1.51"/><path d="M235,835L278,817L259,792Z" fill="rgb(26,18,30)" stroke="rgb(26,18,30)" stroke-width="1.51"/><path d="M-62,649L-44,707L-22,659Z" fill="rgb(69,40,84)" stroke="rgb(69,40,84)" stroke-width="1.51"/><path d="M5,41L-21,81L59,99Z" fill="rgb(107,58,132)" stroke="rgb(107,58,132)" stroke-width="1.51"/><path d="M79,31L61,30L59,99Z" fill="rgb(100,56,124)" stroke="rgb(100,56,124)" stroke-width="1.51"/><path d="M40,-5L61,30L79,31Z" fill="rgb(103,57,129)" stroke="rgb(103,57,129)" stroke-width="1.51"/><path d="M394,805L442,779L379,761Z" fill="rgb(7,4,8)" stroke="rgb(7,4,8)" stroke-width="1.51"/><path d="M446,732L454,852L461,680Z" fill="rgb(10,6,11)" stroke="rgb(10,6,11)" stroke-width="1.51"/><path d="M465,83L454,40L396,55Z" fill="rgb(54,33,65)" stroke="rgb(54,33,65)" stroke-width="1.51"/><path d="M158,7L108,-10L128,53Z" fill="rgb(93,52,115)" stroke="rgb(93,52,115)" stroke-width="1.51"/><path d="M230,1L189,-16L210,60Z" fill="rgb(82,47,101)" stroke="rgb(82,47,101)" stroke-width="1.51"/><path d="M231,-45L189,-16L230,1Z" fill="rgb(82,47,101)" stroke="rgb(82,47,101)" stroke-width="1.51"/><path d="M231,-45L230,1L305,10Z" fill="rgb(77,44,93)" stroke="rgb(77,44,93)" stroke-width="1.51"/><path d="M53,800L114,815L81,729Z" fill="rgb(51,31,60)" stroke="rgb(51,31,60)" stroke-width="1.51"/><path d="M128,827L114,815L94,827Z" fill="rgb(44,28,52)" stroke="rgb(44,28,52)" stroke-width="1.51"/><path d="M330,807L394,805L379,761Z" fill="rgb(12,7,13)" stroke="rgb(12,7,13)" stroke-width="1.51"/><path d="M340,831L394,805L330,807Z" fill="rgb(12,7,14)" stroke="rgb(12,7,14)" stroke-width="1.51"/><path d="M209,843L235,835L190,797Z" fill="rgb(31,21,36)" stroke="rgb(31,21,36)" stroke-width="1.51"/><path d="M285,842L340,831L330,807Z" fill="rgb(18,11,20)" stroke="rgb(18,11,20)" stroke-width="1.51"/><path d="M413,-4L363,51L396,55Z" fill="rgb(56,34,67)" stroke="rgb(56,34,67)" stroke-width="1.51"/><path d="M61,30L5,41L59,99Z" fill="rgb(104,57,129)" stroke="rgb(104,57,129)" stroke-width="1.51"/><path d="M40,-5L5,41L61,30Z" fill="rgb(107,59,133)" stroke="rgb(107,59,133)" stroke-width="1.51"/><path d="M114,815L128,827L163,781Z" fill="rgb(42,27,50)" stroke="rgb(42,27,50)" stroke-width="1.51"/><path d="M53,800L81,729L42,766Z" fill="rgb(54,33,66)" stroke="rgb(54,33,66)" stroke-width="1.51"/><path d="M53,800L42,766L-5,816Z" fill="rgb(57,34,68)" stroke="rgb(57,34,68)" stroke-width="1.51"/><path d="M-5,816L42,766L5,741Z" fill="rgb(60,36,73)" stroke="rgb(60,36,73)" stroke-width="1.51"/><path d="M285,842L330,807L278,817Z" fill="rgb(21,14,24)" stroke="rgb(21,14,24)" stroke-width="1.51"/><path d="M137,-74L108,-10L158,7Z" fill="rgb(94,52,116)" stroke="rgb(94,52,116)" stroke-width="1.51"/><path d="M235,835L285,842L278,817Z" fill="rgb(25,17,27)" stroke="rgb(25,17,27)" stroke-width="1.51"/><path d="M128,827L209,843L190,797Z" fill="rgb(36,23,42)" stroke="rgb(36,23,42)" stroke-width="1.51"/><path d="M287,883L285,842L235,835Z" fill="rgb(23,16,26)" stroke="rgb(23,16,26)" stroke-width="1.51"/><path d="M181,915L260,911L209,843Z" fill="rgb(29,20,34)" stroke="rgb(29,20,34)" stroke-width="1.51"/><path d="M53,800L94,827L114,815Z" fill="rgb(48,30,57)" stroke="rgb(48,30,57)" stroke-width="1.51"/><path d="M440,4L413,-4L396,55Z" fill="rgb(56,34,68)" stroke="rgb(56,34,68)" stroke-width="1.51"/><path d="M53,800L52,857L94,827Z" fill="rgb(50,31,59)" stroke="rgb(50,31,59)" stroke-width="1.51"/><path d="M-44,707L-52,749L5,741Z" fill="rgb(65,38,79)" stroke="rgb(65,38,79)" stroke-width="1.51"/><path d="M-77,780L-52,749L-44,707Z" fill="rgb(64,38,78)" stroke="rgb(64,38,78)" stroke-width="1.51"/><path d="M454,40L440,4L396,55Z" fill="rgb(56,34,67)" stroke="rgb(56,34,67)" stroke-width="1.51"/><path d="M189,-16L137,-74L158,7Z" fill="rgb(90,50,111)" stroke="rgb(90,50,111)" stroke-width="1.51"/><path d="M308,-57L231,-45L305,10Z" fill="rgb(73,42,89)" stroke="rgb(73,42,89)" stroke-width="1.51"/><path d="M308,-57L305,10L326,-13Z" fill="rgb(68,40,83)" stroke="rgb(68,40,83)" stroke-width="1.51"/><path d="M108,-10L40,-5L79,31Z" fill="rgb(102,56,127)" stroke="rgb(102,56,127)" stroke-width="1.51"/><path d="M87,-54L40,-5L108,-10Z" fill="rgb(102,56,127)" stroke="rgb(102,56,127)" stroke-width="1.51"/><path d="M347,-73L308,-57L326,-13Z" fill="rgb(66,39,81)" stroke="rgb(66,39,81)" stroke-width="1.51"/><path d="M347,-73L326,-13L402,-61Z" fill="rgb(62,37,75)" stroke="rgb(62,37,75)" stroke-width="1.51"/><path d="M-13,-14L-47,31L5,41Z" fill="rgb(112,62,140)" stroke="rgb(112,62,140)" stroke-width="1.51"/><path d="M5,41L-47,31L-21,81Z" fill="rgb(110,60,137)" stroke="rgb(110,60,137)" stroke-width="1.51"/><path d="M-21,81L-47,31L-42,117Z" fill="rgb(108,59,135)" stroke="rgb(108,59,135)" stroke-width="1.51"/><path d="M-42,117L-47,31L-68,237Z" fill="rgb(105,58,130)" stroke="rgb(105,58,130)" stroke-width="1.51"/><path d="M-52,749L-5,816L5,741Z" fill="rgb(63,37,76)" stroke="rgb(63,37,76)" stroke-width="1.51"/><path d="M260,911L235,835L209,843Z" fill="rgb(27,19,31)" stroke="rgb(27,19,31)" stroke-width="1.51"/><path d="M231,-45L182,-66L189,-16Z" fill="rgb(84,48,104)" stroke="rgb(84,48,104)" stroke-width="1.51"/><path d="M40,-5L-13,-14L5,41Z" fill="rgb(112,61,139)" stroke="rgb(112,61,139)" stroke-width="1.51"/><path d="M308,-57L182,-66L231,-45Z" fill="rgb(79,45,96)" stroke="rgb(79,45,96)" stroke-width="1.51"/><path d="M342,892L408,853L340,831Z" fill="rgb(7,4,7)" stroke="rgb(7,4,7)" stroke-width="1.51"/><path d="M340,831L408,853L394,805Z" fill="rgb(3,3,4)" stroke="rgb(3,3,4)" stroke-width="1.51"/><path d="M394,805L454,852L442,779Z" fill="rgb(3,2,4)" stroke="rgb(3,2,4)" stroke-width="1.51"/><path d="M287,883L340,831L285,842Z" fill="rgb(18,12,21)" stroke="rgb(18,12,21)" stroke-width="1.51"/><path d="M134,908L128,827L94,827Z" fill="rgb(42,26,50)" stroke="rgb(42,26,50)" stroke-width="1.51"/><path d="M260,911L287,883L235,835Z" fill="rgb(24,16,27)" stroke="rgb(24,16,27)" stroke-width="1.51"/><path d="M137,-74L87,-54L108,-10Z" fill="rgb(97,54,121)" stroke="rgb(97,54,121)" stroke-width="1.51"/><path d="M-5,816L52,857L53,800Z" fill="rgb(54,33,65)" stroke="rgb(54,33,65)" stroke-width="1.51"/><path d="M-5,816L-5,859L52,857Z" fill="rgb(56,34,67)" stroke="rgb(56,34,67)" stroke-width="1.51"/><path d="M-52,749L-77,780L-5,816Z" fill="rgb(62,37,75)" stroke="rgb(62,37,75)" stroke-width="1.51"/><path d="M-62,649L-77,780L-44,707Z" fill="rgb(66,39,80)" stroke="rgb(66,39,80)" stroke-width="1.51"/><path d="M-76,502L-77,780L-62,649Z" fill="rgb(71,41,86)" stroke="rgb(71,41,86)" stroke-width="1.51"/><path d="M37,-71L-13,-14L40,-5Z" fill="rgb(111,60,138)" stroke="rgb(111,60,138)" stroke-width="1.51"/><path d="M182,-66L137,-74L189,-16Z" fill="rgb(89,50,110)" stroke="rgb(89,50,110)" stroke-width="1.51"/><path d="M347,-73L137,-74L182,-66Z" fill="rgb(82,46,100)" stroke="rgb(82,46,100)" stroke-width="1.51"/><path d="M308,-57L347,-73L182,-66Z" fill="rgb(73,42,90)" stroke="rgb(73,42,90)" stroke-width="1.51"/><path d="M402,-61L326,-13L413,-4Z" fill="rgb(59,35,71)" stroke="rgb(59,35,71)" stroke-width="1.51"/><path d="M451,917L454,852L408,853Z" fill="rgb(0,0,0)" stroke="rgb(0,0,0)" stroke-width="1.51"/><path d="M408,853L454,852L394,805Z" fill="rgb(1,1,1)" stroke="rgb(1,1,1)" stroke-width="1.51"/><path d="M442,779L454,852L446,732Z" fill="rgb(6,4,7)" stroke="rgb(6,4,7)" stroke-width="1.51"/><path d="M464,-57L402,-61L413,-4Z" fill="rgb(58,35,70)" stroke="rgb(58,35,70)" stroke-width="1.51"/><path d="M287,883L342,892L340,831Z" fill="rgb(15,9,17)" stroke="rgb(15,9,17)" stroke-width="1.51"/><path d="M260,911L342,892L287,883Z" fill="rgb(20,13,22)" stroke="rgb(20,13,22)" stroke-width="1.51"/><path d="M-46,-71L-47,-7L-13,-14Z" fill="rgb(114,62,142)" stroke="rgb(114,62,142)" stroke-width="1.51"/><path d="M-13,-14L-47,-7L-47,31Z" fill="rgb(114,62,141)" stroke="rgb(114,62,141)" stroke-width="1.51"/><path d="M-47,31L-47,-7L-68,237Z" fill="rgb(108,59,134)" stroke="rgb(108,59,134)" stroke-width="1.51"/><path d="M37,-71L40,-5L87,-54Z" fill="rgb(106,58,131)" stroke="rgb(106,58,131)" stroke-width="1.51"/><path d="M181,915L209,843L134,908Z" fill="rgb(35,23,41)" stroke="rgb(35,23,41)" stroke-width="1.51"/><path d="M134,908L209,843L128,827Z" fill="rgb(37,24,43)" stroke="rgb(37,24,43)" stroke-width="1.51"/><path d="M112,918L94,827L52,857Z" fill="rgb(46,29,55)" stroke="rgb(46,29,55)" stroke-width="1.51"/><path d="M112,918L134,908L94,827Z" fill="rgb(43,27,51)" stroke="rgb(43,27,51)" stroke-width="1.51"/><path d="M-42,845L-5,859L-5,816Z" fill="rgb(58,35,70)" stroke="rgb(58,35,70)" stroke-width="1.51"/><path d="M402,-61L464,-57L347,-73Z" fill="rgb(58,35,70)" stroke="rgb(58,35,70)" stroke-width="1.51"/><path d="M440,4L464,-57L413,-4Z" fill="rgb(58,35,70)" stroke="rgb(58,35,70)" stroke-width="1.51"/><path d="M454,40L464,-57L440,4Z" fill="rgb(58,35,70)" stroke="rgb(58,35,70)" stroke-width="1.51"/><path d="M465,83L464,-57L454,40Z" fill="rgb(56,34,68)" stroke="rgb(56,34,68)" stroke-width="1.51"/><path d="M342,892L379,904L408,853Z" fill="rgb(3,2,4)" stroke="rgb(3,2,4)" stroke-width="1.51"/><path d="M260,911L379,904L342,892Z" fill="rgb(15,9,17)" stroke="rgb(15,9,17)" stroke-width="1.51"/><path d="M137,-74L37,-71L87,-54Z" fill="rgb(101,56,125)" stroke="rgb(101,56,125)" stroke-width="1.51"/><path d="M-77,780L-42,845L-5,816Z" fill="rgb(60,36,72)" stroke="rgb(60,36,72)" stroke-width="1.51"/><path d="M-10,881L52,857L-5,859Z" fill="rgb(56,34,67)" stroke="rgb(56,34,67)" stroke-width="1.51"/><path d="M58,911L112,918L52,857Z" fill="rgb(48,29,57)" stroke="rgb(48,29,57)" stroke-width="1.51"/><path d="M134,908L112,918L181,915Z" fill="rgb(39,25,46)" stroke="rgb(39,25,46)" stroke-width="1.51"/><path d="M37,-71L-9,-67L-13,-14Z" fill="rgb(113,61,141)" stroke="rgb(113,61,141)" stroke-width="1.51"/><path d="M-42,845L-10,881L-5,859Z" fill="rgb(58,35,70)" stroke="rgb(58,35,70)" stroke-width="1.51"/><path d="M-10,881L58,911L52,857Z" fill="rgb(53,32,64)" stroke="rgb(53,32,64)" stroke-width="1.51"/><path d="M379,904L451,917L408,853Z" fill="rgb(0,0,0)" stroke="rgb(0,0,0)" stroke-width="1.51"/><path d="M260,911L451,917L379,904Z" fill="rgb(7,4,7)" stroke="rgb(7,4,7)" stroke-width="1.51"/><path d="M181,915L451,917L260,911Z" fill="rgb(20,13,22)" stroke="rgb(20,13,22)" stroke-width="1.51"/><path d="M112,918L451,917L181,915Z" fill="rgb(26,17,29)" stroke="rgb(26,17,29)" stroke-width="1.51"/><path d="M37,-71L-46,-71L-9,-67Z" fill="rgb(114,62,142)" stroke="rgb(114,62,142)" stroke-width="1.51"/><path d="M-9,-67L-46,-71L-13,-14Z" fill="rgb(114,62,142)" stroke="rgb(114,62,142)" stroke-width="1.51"/><path d="M-47,-7L-46,-71L-68,237Z" fill="rgb(110,60,137)" stroke="rgb(110,60,137)" stroke-width="1.51"/><path d="M137,-74L-46,-71L37,-71Z" fill="rgb(107,59,133)" stroke="rgb(107,59,133)" stroke-width="1.51"/><path d="M-10,881L-69,906L58,911Z" fill="rgb(58,35,70)" stroke="rgb(58,35,70)" stroke-width="1.51"/><path d="M58,911L-69,906L112,918Z" fill="rgb(53,32,64)" stroke="rgb(53,32,64)" stroke-width="1.51"/><path d="M-42,845L-69,906L-10,881Z" fill="rgb(58,35,70)" stroke="rgb(58,35,70)" stroke-width="1.51"/><path d="M-77,780L-69,906L-42,845Z" fill="rgb(58,35,70)" stroke="rgb(58,35,70)" stroke-width="1.51"/></svg>